<svg width="88" height="62" viewBox="0 0 88 62" fill="none" xmlns="http://www.w3.org/2000/svg">
<path d="M32.1852 1.94386C27.5159 5.98582 23.7916 10.47 21.0331 15.4006C17.9719 20.7428 16.3256 25.4718 16.3256 29.5238V32.1313L18.5797 30.8205C19.6026 30.2256 21.2499 29.8429 23.6923 29.8429C28.3084 29.8429 31.973 31.2929 34.8179 34.129L34.8415 34.1525L34.8662 34.175C37.8452 36.8917 39.341 40.3513 39.341 44.6794C39.341 49.3709 37.6425 53.15 34.2254 56.1358C30.7934 59.0047 26.2745 60.5 20.5333 60.5C14.5059 60.5 9.86459 58.8825 6.44497 55.7913C3.13161 52.5302 1.5 48.6562 1.5 44.0889C1.5 35.7892 3.32755 28.0859 6.97631 20.9564L6.97635 20.9564L6.98116 20.9469C10.6406 13.6689 15.5238 7.895 21.6242 3.58721L21.6409 3.57545L21.6572 3.56324C23.4433 2.22779 25.8117 1.5 28.882 1.5C30.1235 1.5 31.2197 1.65313 32.1852 1.94386ZM86.5 44.6794C86.5 49.3546 84.7397 53.1323 81.1694 56.1269C77.7293 59.0072 73.2784 60.5 67.6923 60.5C61.6582 60.5 57.0133 58.879 53.5926 55.781C50.1275 52.5121 48.4333 48.6407 48.4333 44.0889C48.4333 35.7934 50.2591 28.0936 53.9042 20.9671C57.7148 13.8112 62.681 8.02311 68.7999 3.57522L68.8081 3.56929L68.8162 3.56324C70.6023 2.22779 72.9707 1.5 76.041 1.5C77.2434 1.5 78.2759 1.64349 79.1586 1.90916C74.4705 5.9602 70.7327 10.456 67.9664 15.4008C64.9052 20.7429 63.259 25.4719 63.259 29.5238V32.1313L65.513 30.8205C66.536 30.2256 68.1832 29.8429 70.6256 29.8429C75.2413 29.8429 78.9967 31.2936 82.0019 34.1533L82.0134 34.1643L82.0252 34.175C85.0042 36.8917 86.5 40.3513 86.5 44.6794Z" stroke="#2FA4C9" stroke-width="3"/>
</svg>
